<svg xmlns="http://www.w3.org/2000/svg" viewBox="0 0 800 600" width="800" height="600">
<defs>
<linearGradient id="bg" x1="0" y1="0" x2="1" y2="1">
<stop offset="0%" stop-color="#0d0f14"/><stop offset="100%" stop-color="#191d26"/>
</linearGradient>
<radialGradient id="glow" cx="50%" cy="35%" r="65%">
<stop offset="0%" stop-color="#d9a441" stop-opacity=".18"/>
<stop offset="100%" stop-color="#d9a441" stop-opacity="0"/>
</radialGradient>
</defs>
<rect width="800" height="600" fill="url(#bg)"/>
<rect width="800" height="600" fill="url(#glow)"/>
<g transform="translate(240,300) rotate(-20)">
<circle cx="-52" cy="-30" r="26" fill="none" stroke="#d9a441" stroke-width="4"/>
<circle cx="-52" cy="30" r="26" fill="none" stroke="#d9a441" stroke-width="4"/>
<line x1="-30" y1="-16" x2="86" y2="60" stroke="#d9a441" stroke-width="4" stroke-linecap="round"/>
<line x1="-30" y1="16" x2="86" y2="-60" stroke="#d9a441" stroke-width="4" stroke-linecap="round"/>
<circle cx="0" cy="0" r="6" fill="#f0c274"/>
</g>
<g transform="translate(560,250)">
<rect x="-105" y="-18" width="210" height="36" rx="10" fill="none" stroke="#f0c274" stroke-width="3.5"/>
<line x1="-92" y1="18" x2="-92" y2="54" stroke="#f0c274" stroke-width="2.5"/><line x1="-79" y1="18" x2="-79" y2="54" stroke="#f0c274" stroke-width="2.5"/><line x1="-66" y1="18" x2="-66" y2="54" stroke="#f0c274" stroke-width="2.5"/><line x1="-53" y1="18" x2="-53" y2="54" stroke="#f0c274" stroke-width="2.5"/><line x1="-40" y1="18" x2="-40" y2="54" stroke="#f0c274" stroke-width="2.5"/><line x1="-27" y1="18" x2="-27" y2="54" stroke="#f0c274" stroke-width="2.5"/><line x1="-14" y1="18" x2="-14" y2="54" stroke="#f0c274" stroke-width="2.5"/><line x1="-1" y1="18" x2="-1" y2="54" stroke="#f0c274" stroke-width="2.5"/><line x1="12" y1="18" x2="12" y2="54" stroke="#f0c274" stroke-width="2.5"/><line x1="25" y1="18" x2="25" y2="54" stroke="#f0c274" stroke-width="2.5"/><line x1="38" y1="18" x2="38" y2="54" stroke="#f0c274" stroke-width="2.5"/><line x1="51" y1="18" x2="51" y2="54" stroke="#f0c274" stroke-width="2.5"/><line x1="64" y1="18" x2="64" y2="54" stroke="#f0c274" stroke-width="2.5"/><line x1="77" y1="18" x2="77" y2="54" stroke="#f0c274" stroke-width="2.5"/><line x1="90" y1="18" x2="90" y2="54" stroke="#f0c274" stroke-width="2.5"/>
</g>
<g transform="translate(400,470)">
<rect x="-90" y="-26" width="150" height="52" rx="14" fill="none" stroke="#d9a441" stroke-width="3.5"/>
<rect x="60" y="-20" width="40" height="40" rx="6" fill="none" stroke="#f5f2ec" stroke-opacity=".5" stroke-width="3"/>
<line x1="64" y1="-20" x2="64" y2="20" stroke="#f5f2ec" stroke-opacity=".3" stroke-width="2"/><line x1="72" y1="-20" x2="72" y2="20" stroke="#f5f2ec" stroke-opacity=".3" stroke-width="2"/><line x1="80" y1="-20" x2="80" y2="20" stroke="#f5f2ec" stroke-opacity=".3" stroke-width="2"/><line x1="88" y1="-20" x2="88" y2="20" stroke="#f5f2ec" stroke-opacity=".3" stroke-width="2"/><line x1="96" y1="-20" x2="96" y2="20" stroke="#f5f2ec" stroke-opacity=".3" stroke-width="2"/>
</g>
</svg>