<svg xmlns="http://www.w3.org/2000/svg" viewBox="0 0 800 600" width="800" height="600">
<defs>
<linearGradient id="bg" x1="0" y1="0" x2="1" y2="1">
<stop offset="0%" stop-color="#0d0f14"/><stop offset="100%" stop-color="#191d26"/>
</linearGradient>
<radialGradient id="glow" cx="50%" cy="35%" r="65%">
<stop offset="0%" stop-color="#d9a441" stop-opacity=".18"/>
<stop offset="100%" stop-color="#d9a441" stop-opacity="0"/>
</radialGradient>
</defs>
<rect width="800" height="600" fill="url(#bg)"/>
<rect width="800" height="600" fill="url(#glow)"/>
<rect x="150" y="180" width="500" height="330" rx="10" fill="none" stroke="#d9a441" stroke-opacity=".5" stroke-width="3"/>
<path d="M130 180 h540 l-30 -60 h-480 z" fill="none" stroke="#d9a441" stroke-width="3.5"/>
<line x1="175" y1="120" x2="160" y2="180" stroke="#d9a441" stroke-opacity=".45" stroke-width="2.5"/><line x1="235" y1="120" x2="220" y2="180" stroke="#d9a441" stroke-opacity=".45" stroke-width="2.5"/><line x1="295" y1="120" x2="280" y2="180" stroke="#d9a441" stroke-opacity=".45" stroke-width="2.5"/><line x1="355" y1="120" x2="340" y2="180" stroke="#d9a441" stroke-opacity=".45" stroke-width="2.5"/><line x1="415" y1="120" x2="400" y2="180" stroke="#d9a441" stroke-opacity=".45" stroke-width="2.5"/><line x1="475" y1="120" x2="460" y2="180" stroke="#d9a441" stroke-opacity=".45" stroke-width="2.5"/><line x1="535" y1="120" x2="520" y2="180" stroke="#d9a441" stroke-opacity=".45" stroke-width="2.5"/><line x1="595" y1="120" x2="580" y2="180" stroke="#d9a441" stroke-opacity=".45" stroke-width="2.5"/><line x1="655" y1="120" x2="640" y2="180" stroke="#d9a441" stroke-opacity=".45" stroke-width="2.5"/>
<rect x="345" y="300" width="110" height="210" rx="6" fill="none" stroke="#f5f2ec" stroke-opacity=".35" stroke-width="3"/>
<circle cx="435" cy="405" r="5" fill="#f0c274"/>
<rect x="185" y="300" width="130" height="130" rx="6" fill="none" stroke="#f5f2ec" stroke-opacity=".2" stroke-width="3"/>
<rect x="485" y="300" width="130" height="130" rx="6" fill="none" stroke="#f5f2ec" stroke-opacity=".2" stroke-width="3"/>
<g transform="translate(680,350)">
<rect x="-16" y="-90" width="32" height="180" rx="16" fill="none" stroke="#f5f2ec" stroke-opacity=".55" stroke-width="3"/>
<line x1="-16" y1="-78" x2="16" y2="-92" stroke="#d9a441" stroke-width="7"/><line x1="-16" y1="-52" x2="16" y2="-66" stroke="#d9a441" stroke-width="7"/><line x1="-16" y1="-26" x2="16" y2="-40" stroke="#d9a441" stroke-width="7"/><line x1="-16" y1="0" x2="16" y2="-14" stroke="#d9a441" stroke-width="7"/><line x1="-16" y1="26" x2="16" y2="12" stroke="#d9a441" stroke-width="7"/><line x1="-16" y1="52" x2="16" y2="38" stroke="#d9a441" stroke-width="7"/><line x1="-16" y1="78" x2="16" y2="64" stroke="#d9a441" stroke-width="7"/>
<circle cx="0" cy="-98" r="11" fill="none" stroke="#f0c274" stroke-width="3"/>
<circle cx="0" cy="98" r="11" fill="none" stroke="#f0c274" stroke-width="3"/>
</g>
<text x="400" y="255" font-family="Georgia,serif" font-size="42" letter-spacing="9"
      fill="#f0c274" text-anchor="middle">SINCERE</text>
</svg>